# xmcd CD database file
#
# Track frame offsets:
#	150
#	15710
#	33016
#	50476
#	69179
#	90763
#	107634
#	123984
#	134641
#	152776
#	171299
#	184027
#
# Disc length: 2681 seconds
#
# Revision: 0
# Processed by: cddbd v1.5.2PL0 Copyright (c) Steve Scherf et al.
# Submitted via: CDex 1.51
#
DISCID=910a770c
DTITLE=John Arthur Martinez and TEJAS - unreleased
DYEAR=2006
DGENRE=Country
TTITLE0=Boys With Guitars
TTITLE1=It Takes A Part of My Heart Away
TTITLE2=A Real Good Year For Beer
TTITLE3=That's My Baby
TTITLE4=What Good Is I Love You
TTITLE5=Saturday Nicht In A Redneck Town
TTITLE6=All Hat and No Cattle
TTITLE7=Cherry Springs Swing
TTITLE8=I Watched You Break My Heart
TTITLE9=I'll Be Missin' You
TTITLE10=Front Porch Swing
TTITLE11=Take Me Back To Texas
EXTD=YEAR: 2006
EXTT0=
EXTT1=
EXTT2=
EXTT3=
EXTT4=
EXTT5=
EXTT6=
EXTT7=
EXTT8=
EXTT9=
EXTT10=
EXTT11=
PLAYORDER=
